<svg xmlns="http://www.w3.org/2000/svg" width="115" height="214" viewBox="0 0 115 214">
  <path fill="#FFFFFF" fill-rule="evenodd" d="M114.982143,93 L115,93 L115,20 C115,8.954305 106.045695,-2.02906125e-15 95,0 L20,0 L20,0 C8.954305,2.02906125e-15 -1.35308431e-15,8.954305 0,20 L0,20 L0,82 L3.69919373e-13,93 C-0.333333333,99.3333333 4,106 13,113 C25.1034483,122.413793 25.9536266,126.200951 26,135.531592 L26,204 C26,209.522847 30.4771525,214 36,214 L79,214 C84.5228475,214 89,209.522847 89,204 L89,133.98004 C89.1629077,125.748433 90.5722759,121.874341 101.982143,113 C110.982143,106 115.315476,99.3333333 114.982143,93 Z"/>
</svg>
